<?xml version="1.0" encoding="utf-8"?>
<!-- Generator: Adobe Illustrator 25.2.0, SVG Export Plug-In . SVG Version: 6.00 Build 0)  -->
<svg version="1.1" id="Capa_1" xmlns="http://www.w3.org/2000/svg" xmlns:xlink="http://www.w3.org/1999/xlink" x="0px" y="0px"
	 viewBox="0 0 512 512" style="enable-background:new 0 0 512 512;" xml:space="preserve">
<style type="text/css">
	.st0{fill:#EA8A1D;}
</style>
<g>
	<path class="st0" d="M478.7,30.1H33.3C14.9,30.1,0,45,0,63.4v325c0,17.3,13.3,31.5,30.1,33.1v45.4c0,8.3,6.7,15,15,15h90.4
		c8.3,0,15-6.7,15-15v-45.2h211v45.2c0,8.3,6.7,15,15,15h90.4c8.3,0,15-6.7,15-15v-45.4c16.9-1.6,30.1-15.8,30.1-33.1v-325
		C512,45,497.1,30.1,478.7,30.1L478.7,30.1z M120.5,451.9H60.1v-30.2h60.4V451.9z M451.9,451.9h-60.4v-30.2h60.4V451.9z M482,388.4
		c0,1.8-1.5,3.3-3.3,3.3h-11.9H45.1H33.3c-1.8,0-3.3-1.5-3.3-3.3v-325c0-1.8,1.5-3.3,3.3-3.3h445.5c1.8,0,3.3,1.5,3.3,3.3L482,388.4
		L482,388.4z"/>
	<path class="st0" d="M238,94.9H93.2c-18.2,0-33,14.8-33,33v80c0,18.2,14.8,33,33,33H238c18.2,0,33-14.8,33-33v-80
		C271,109.7,256.2,94.9,238,94.9z M241,207.9c0,1.7-1.3,3-3,3H93.2c-1.7,0-3-1.3-3-3v-80c0-1.7,1.3-3,3-3H238c1.7,0,3,1.3,3,3V207.9
		z"/>
	<path class="st0" d="M376.5,90.4c-41.5,0-75.2,33.8-75.2,75.2s33.8,75.2,75.2,75.2s75.2-33.8,75.2-75.2S418,90.4,376.5,90.4z
		 M376.5,210.9c-25,0-45.2-20.3-45.2-45.2s20.3-45.2,45.2-45.2s45.2,20.3,45.2,45.2S401.5,210.9,376.5,210.9z"/>
	<path class="st0" d="M406.6,271.1c-11.6,0-22.1,4.4-30.1,11.6c-8-7.2-18.6-11.6-30.1-11.6c-24.9,0-45.1,20.2-45.1,45.1
		s20.2,45.1,45.1,45.1c11.6,0,22.1-4.4,30.1-11.6c8,7.2,18.6,11.6,30.1,11.6c24.9,0,45.1-20.2,45.1-45.1S431.5,271.1,406.6,271.1z
		 M346.4,331.4c-8.3,0-15.1-6.8-15.1-15.1s6.8-15.1,15.1-15.1s15.1,6.8,15.1,15.1S354.7,331.4,346.4,331.4z M406.6,331.4
		c-8.3,0-15.1-6.8-15.1-15.1s6.8-15.1,15.1-15.1s15.1,6.8,15.1,15.1S415,331.4,406.6,331.4z"/>
	<path class="st0" d="M256,271.1H75.2c-8.3,0-15,6.7-15,15s6.7,15,15,15H256c8.3,0,15-6.7,15-15S264.3,271.1,256,271.1z"/>
	<path class="st0" d="M256,331.4H75.2c-8.3,0-15,6.7-15,15s6.7,15,15,15H256c8.3,0,15-6.7,15-15S264.3,331.4,256,331.4z"/>
</g>
</svg>
