<?xml version="1.0" encoding="utf-8"?>
<!-- Generator: Adobe Illustrator 25.2.1, SVG Export Plug-In . SVG Version: 6.00 Build 0)  -->
<svg version="1.1" id="Layer_1" xmlns="http://www.w3.org/2000/svg" xmlns:xlink="http://www.w3.org/1999/xlink" x="0px" y="0px"
	 viewBox="0 0 512 512" style="enable-background:new 0 0 512 512;" xml:space="preserve">
<style type="text/css">
	.st0{fill:#EA8A1D;}
</style>
<path class="st0" d="M486.3,289.1v180.2c0,23.5-19.1,42.7-42.7,42.7H68.3c-23.5,0-42.7-19.1-42.7-42.7V289.1c0-4.7,3.8-8.5,8.5-8.5
	s8.5,3.8,8.5,8.5v180.2c0,14.1,11.5,25.6,25.6,25.6h92.8v-144c0-23.5,19.1-42.7,42.7-42.7h104.5c23.5,0,42.7,19.1,42.7,42.7v109.8
	c0,4.7-3.8,8.5-8.5,8.5c-4.7,0-8.5-3.8-8.5-8.5V350.9c0-14.1-11.5-25.6-25.6-25.6H203.7c-14.1,0-25.6,11.5-25.6,25.6v144h69.3V360.5
	c0-4.7,3.8-8.5,8.5-8.5s8.5,3.8,8.5,8.5v134.4h179.2c14.1,0,25.6-11.5,25.6-25.6V289.1c0-4.7,3.8-8.5,8.5-8.5
	S486.3,284.3,486.3,289.1z M55.5,136.6c0,4.7,3.8,8.5,8.5,8.5c464.2,0,441.2,0.8,444.6-1.8c1.8-1.4,2.9-3.3,3.2-5.6
	c0.5-3.4,3.5,5-56.1-132.5c-1.4-3.1-4.4-5.1-7.8-5.1H64c-3.4,0-6.5,2-7.8,5.1l-55.5,128c-1,2.3-0.7-1.3-0.7,56.3
	c0.1,38.8,31.6,70.4,70.4,70.4c26.6,0,49.9-14.9,61.8-36.9c26.7,49,97,49.1,123.7,0c26.7,49,97,49,123.7,0
	c11.9,21.9,35.2,36.8,61.9,36.8c38.8,0,70.4-31.6,70.4-70.4c0-4.7-3.8-8.5-8.5-8.5c-4.7,0-8.5,3.8-8.5,8.5
	c0,29.4-23.9,53.3-53.3,53.3c-29.4,0-53.3-23.9-53.3-53.3c0-4.7-3.8-8.5-8.5-8.5c-4.7,0-8.5,3.8-8.5,8.5c0,29.4-23.9,53.3-53.3,53.3
	s-53.3-23.9-53.3-53.3c0-4.7-3.8-8.5-8.5-8.5s-8.5,3.8-8.5,8.5c0,29.4-23.9,53.3-53.3,53.3c-28.7,0-53.3-23.1-53.3-53.7
	c0-4.7-3.8-8.5-8.5-8.5s-8.5,3.8-8.5,8.5c0,30.4-24.4,53.7-53.3,53.7c-29.4,0-53.3-23.9-53.3-53.3v-51.1L69.6,17.1h372.7L490.4,128
	H64C59.3,128,55.5,131.8,55.5,136.6L55.5,136.6z"/>
</svg>
