<?xml version="1.0" encoding="utf-8"?>
<!-- Generator: Adobe Illustrator 25.2.0, SVG Export Plug-In . SVG Version: 6.00 Build 0)  -->
<svg version="1.1" id="Capa_1" xmlns="http://www.w3.org/2000/svg" xmlns:xlink="http://www.w3.org/1999/xlink" x="0px" y="0px"
	 viewBox="0 0 512 512" style="enable-background:new 0 0 512 512;" xml:space="preserve">
<style type="text/css">
	.st0{fill:#EA8A1D;}
</style>
<path class="st0" d="M462,120h-85V90c0-5.5-4.5-10-10-10V40c0-22.1-17.9-40-40-40H185c-22.1,0-40,17.9-40,40v40c-5.5,0-10,4.5-10,10
	v30H50c-27.6,0-50,22.4-50,50v252c0,27.6,22.4,50,50,50h10v30c0,5.5,4.5,10,10,10h50c5.5,0,10-4.5,10-10v-30h262v30
	c0,5.5,4.5,10,10,10h50c5.5,0,10-4.5,10-10v-30c27.6,0,50-22.4,50-50V170C512,142.4,489.6,120,462,120z M215,120V90
	c0-5.5-4.5-10-10-10V60h102v20c-5.5,0-10,4.5-10,10v30H215z M317,100h40v20h-40V100z M165,40c0-11,9-20,20-20h142c11,0,20,9,20,20
	v40h-20V50c0-5.5-4.5-10-10-10H195c-5.5,0-10,4.5-10,10v30h-20V40z M155,100h40v20h-40V100z M50,140h340.8L20,268.6v-22.5l50-17.3
	c2.5-0.9,4.6-2.7,5.7-5.1c1.2-2.4,1.3-5.1,0.4-7.6c-1.4-4-5.2-6.7-9.4-6.7c-1.1,0-2.2,0.2-3.3,0.6L20,224.9V170
	C20,153.5,33.5,140,50,140z M20,422V289.8L451.8,140H462c16.5,0,30,13.5,30,30v134.2L63.2,452H50C33.5,452,20,438.5,20,422z
	 M110,492H80v-20h30V492z M442,492h-30v-20h30V492z M462,452H124.6L492,325.4v20.5l-50,17.4c-2.5,0.9-4.6,2.7-5.7,5.1
	c-1.2,2.4-1.3,5.1-0.4,7.6c1.4,4,5.2,6.7,9.4,6.7c1.1,0,2.2-0.2,3.3-0.6l43.4-15.1V422C492,438.5,478.5,452,462,452z"/>
<path class="st0" d="M104.5,216.2c1.1,0,2.2-0.2,3.3-0.6c2.5-0.9,4.6-2.7,5.7-5.1c1.2-2.4,1.3-5.1,0.4-7.6c-1.4-4-5.2-6.7-9.4-6.7
	c-1.1,0-2.2,0.2-3.3,0.6c-5.2,1.8-8,7.5-6.2,12.7C96.4,213.5,100.2,216.2,104.5,216.2z"/>
<path class="st0" d="M407.5,375.8c-1.1,0-2.2,0.2-3.3,0.6c-5.2,1.8-8,7.5-6.2,12.7c1.4,4,5.2,6.7,9.4,6.7c1.1,0,2.2-0.2,3.3-0.6
	c2.5-0.9,4.6-2.7,5.7-5.1c1.2-2.4,1.3-5.1,0.4-7.6C415.6,378.5,411.8,375.8,407.5,375.8z"/>
<path class="st0" d="M84.9,403.5c0.5,1.4,1.6,2.3,3.4,2.6c1.7,0.3,3.6,0.1,5.6-0.6c2-0.7,3.5-1.7,4.7-3.1c1.2-1.4,1.5-2.8,1-4.2
	L76,333.2l16.5-6c1.4-0.5,2.3-1.6,2.7-3.2c0.4-1.6,0.2-3.3-0.4-5c-0.6-1.7-1.5-3-2.8-4c-1.3-1-2.6-1.2-4.1-0.7l-47.7,17.4
	c-1.5,0.6-2.4,1.6-2.7,3.2c-0.3,1.6-0.2,3.2,0.4,4.9c0.7,1.8,1.6,3.2,2.9,4.2c1.3,0.9,2.6,1.2,4.1,0.6l16.6-6L84.9,403.5z"/>
<path class="st0" d="M123.1,387.5c0.7,1.9,2.4,3,5,3.4s5.3,0.2,7.7-0.7c3.1-1.1,4.6-2.8,4.5-5l-1.3-16.5l24.2-8.8l9.7,13.4
	c1.2,1.8,3.2,2.1,6,1.1c2.1-0.8,4-2.1,5.5-4.1c1.6-1.9,2.1-3.7,1.5-5.4c-0.1-0.1-0.3-0.5-0.6-1l-47.6-63c-1-1.4-2.6-2.2-4.7-2.4
	s-4.3,0.1-6.6,0.9s-4.1,1.9-5.6,3.4c-1.5,1.4-2.2,2.9-2.1,4.5l4,78.9C123,386.9,123.1,387.3,123.1,387.5z M157.7,349l-19.5,7.1
	l-2.9-38.1L157.7,349z"/>
<path class="st0" d="M170.1,296.9c1.3,0.9,2.6,1.2,4.1,0.6l16.6-6l23.6,64.9c0.5,1.4,1.6,2.3,3.4,2.6c1.7,0.3,3.6,0.1,5.6-0.6
	c2-0.7,3.5-1.7,4.7-3.1c1.2-1.4,1.5-2.8,1-4.2l-23.6-64.9l16.5-6c1.4-0.5,2.3-1.6,2.7-3.2c0.4-1.6,0.2-3.3-0.4-5
	c-0.6-1.7-1.5-3-2.8-4c-1.3-1-2.6-1.2-4.1-0.7l-47.7,17.4c-1.5,0.5-2.4,1.6-2.7,3.2c-0.3,1.6-0.2,3.2,0.4,4.9
	C167.9,294.5,168.8,295.9,170.1,296.9z"/>
<path class="st0" d="M238.8,271.9c1.3,0.9,2.6,1.2,4.1,0.6l16.6-6l23.6,64.9c0.5,1.4,1.6,2.3,3.4,2.6s3.6,0.1,5.6-0.6
	c2-0.7,3.5-1.7,4.7-3.1c1.2-1.4,1.5-2.8,1-4.2l-23.6-64.9l16.5-6c1.4-0.5,2.3-1.6,2.7-3.2c0.4-1.6,0.2-3.3-0.4-5
	c-0.6-1.7-1.5-3-2.8-4c-1.3-1-2.6-1.2-4.1-0.7l-47.7,17.4c-1.5,0.5-2.4,1.6-2.7,3.2s-0.2,3.2,0.4,4.9
	C236.5,269.5,237.5,270.9,238.8,271.9z"/>
<path class="st0" d="M327.6,292c3.3,8.9,8,14.6,14.3,17c6.3,2.4,13.4,2.1,21.5-0.8c8-2.9,13.7-7.3,17-13.2s3.3-13.3,0.1-22.2
	L369,241.3c-3.3-8.9-8-14.6-14.4-17c-6.3-2.4-13.5-2.1-21.5,0.8c-8,2.9-13.7,7.3-17,13.2s-3.3,13.3,0,22.2L327.6,292z M337.8,237.9
	c7.9-2.9,13.4,0,16.6,8.7l11.5,31.5c3.1,8.6,0.8,14.4-7.1,17.3c-7.8,2.8-13.3-0.1-16.4-8.7l-11.4-31.5
	C327.6,246.5,330,240.8,337.8,237.9z"/>
<path class="st0" d="M401.2,265.2c3.3,8.9,8,14.6,14.3,17c6.3,2.4,13.4,2.1,21.5-0.8c8-2.9,13.7-7.3,17-13.2
	c3.3-5.9,3.3-13.3,0.1-22.2l-11.4-31.5c-3.3-8.9-8-14.6-14.4-17c-6.3-2.4-13.5-2.1-21.5,0.8c-8,2.9-13.7,7.3-17,13.2
	c-3.3,5.9-3.3,13.3,0,22.2L401.2,265.2z M411.4,211.1c7.9-2.9,13.4,0,16.6,8.7l11.4,31.5c3.1,8.6,0.8,14.4-7.1,17.3
	c-7.8,2.8-13.3-0.1-16.4-8.7l-11.5-31.5C401.3,219.7,403.6,214,411.4,211.1z"/>
</svg>
