<?xml version="1.0" encoding="utf-8"?>
<!-- Generator: Adobe Illustrator 25.2.0, SVG Export Plug-In . SVG Version: 6.00 Build 0)  -->
<svg version="1.1" id="Capa_1" xmlns="http://www.w3.org/2000/svg" xmlns:xlink="http://www.w3.org/1999/xlink" x="0px" y="0px"
	 viewBox="0 0 512 512" style="enable-background:new 0 0 512 512;" xml:space="preserve">
<style type="text/css">
	.st0{fill:#EA8A1D;}
</style>
<g id="XMLID_1165_">
	<g id="XMLID_28_">
		<path id="XMLID_57_" class="st0" d="M497.4,212.1c-2-10.1-8.3-18.9-17.2-24l-19.8-11.4c-2.3-1.3-5-1.7-7.6-1
			c-2.6,0.7-4.7,2.4-6.1,4.7l-1.3,2.2l-45.1-26c0,0-3.5-2-3.5-2c6.2-23.8,6.4-48.9,0.4-73c-3-12.1-7.5-23.6-13.3-34.4l28.8-7.7
			c5.3-1.4,8.5-6.9,7.1-12.2c-1.4-5.3-6.9-8.5-12.2-7.1l-34.9,9.4c-5.2-7-11-13.5-17.4-19.5c-7.1-6.7-16.4-10.2-26.2-9.9
			c-9.8,0.3-18.8,4.4-25.5,11.6s-10.2,16.4-9.9,26.2c0.1,4.3,1,8.4,2.5,12.2c-4.5,1.9-7,6.9-5.7,11.8c1.2,4.5,5.2,7.4,9.7,7.4
			c0.9,0,1.7-0.1,2.6-0.3l6.3-1.7c12.1,13.1,18.9,30.1,19.4,47.8l-77.7-44.8c-4.8-2.8-10.9-1.1-13.7,3.7s-1.1,10.9,3.7,13.7
			l11.5,6.6c-1.9,1.8-3.5,3.8-4.8,6.1l-35.4,61.4c-1.3,2.3-2.3,4.8-2.9,7.2l-15.8-9.1c-7.9-4.6-17.2-5.8-26.1-3.4
			c-8.9,2.4-16.3,8.1-20.9,16c-8.1,14.1-5.1,31.6,6.3,42.3L140,236.6c-14.1-5.6-30.6-0.1-38.4,13.4L29.8,374.4
			c-7.8,13.5-4.3,30.5,7.6,40l-17.1,29.7c-0.7,1.2-1.2,2.6-1.3,4.1l-5,52.9c-0.4,3.9,1.6,7.6,5,9.6c1.6,0.9,3.3,1.3,5,1.3
			c2,0,4.1-0.6,5.8-1.8L73,479.4c1.2-0.8,2.2-1.9,2.9-3.2L93,446.5c3.7,1.5,7.6,2.2,11.4,2.2c10.8,0,21.3-5.6,27-15.6l71.8-124.4
			c7.8-13.5,4.3-30.5-7.6-40l12.3-21.3l10.5,6.1c9.2,5.3,19.3,7.9,29.3,7.9c17.1,0,33.9-7.5,45.2-21.1l93.4,54
			c0,2.9,0.4,5.8,1.2,8.6c2.4,8.9,8.1,16.3,16,20.9c5.3,3.1,11.2,4.6,17.2,4.6c3.7,0,7.5-0.6,11.1-1.8c9.4-3.2,16.9-10.3,20.7-19.5
			c9.7-23.6,22.5-45.9,38-66.1C497,232.7,499.4,222.2,497.4,212.1L497.4,212.1z M392.3,274.5l-22.1-12.7c1.9-1.8,3.5-3.8,4.8-6.1
			l35.4-61.4c1.3-2.3,2.3-4.8,2.9-7.2l22.1,12.7L392.3,274.5z M363.5,159.4c1.3,0,2.6,0.3,3.8,1l23,13.3c3.7,2.1,4.9,6.9,2.8,10.5
			l-35.4,61.4c-1,1.8-2.7,3.1-4.7,3.6s-4.1,0.3-5.9-0.8l-23-13.3c-1.8-1-3.1-2.7-3.6-4.7c-0.5-2-0.3-4.1,0.8-5.9l35.4-61.4
			C358.2,160.8,360.8,159.4,363.5,159.4L363.5,159.4z M318.2,25.2c3-3.2,7.1-5.1,11.5-5.2c4.4-0.2,8.6,1.4,11.9,4.5
			c32.6,30.5,46.5,76.3,37.2,119.5l-30.7-17.7c2.9-29-7.8-57.6-29.2-77.6c-3.2-3-5.1-7.1-5.2-11.5S315.1,28.5,318.2,25.2z
			 M229.4,171.5l35.4-61.4c1.4-2.5,4-3.9,6.7-3.9c1.3,0,2.6,0.3,3.8,1l23,13.3c3.7,2.1,4.9,6.9,2.8,10.5l-35.4,61.4
			c-1,1.8-2.7,3.1-4.7,3.6c-2,0.5-4.1,0.3-5.9-0.8l-23-13.3c-1.8-1-3.1-2.7-3.6-4.7S228.4,173.3,229.4,171.5z M283.1,202.5
			l35.4-61.4c1.3-2.3,2.3-4.8,2.9-7.2l22.8,13.2c-1.8,1.8-3.5,3.8-4.8,6.1L304,214.6c-1.3,2.3-2.3,4.7-2.9,7.2l-22.8-13.2
			C280.2,206.9,281.8,204.8,283.1,202.5L283.1,202.5z M139.6,379.1l-67-38.7l21-36.4l67,38.7L139.6,379.1z M59.7,464.3l-23.8,16.9
			l2.7-29l15.9-27.5l21,12.1L59.7,464.3z M114.1,423.1c-3.1,5.3-9.9,7.2-15.2,4.1l-47.7-27.6c-5.3-3.1-7.2-9.9-4.1-15.2l15.4-26.7
			l67,38.7L114.1,423.1z M186,298.7l-15.4,26.7l-67-38.7l15.4-26.7c2.1-3.6,5.8-5.6,9.7-5.6c1.9,0,3.8,0.5,5.6,1.5l47.7,27.6
			C187.2,286.5,189,293.4,186,298.7z M178.5,258.4l-21-12.1l12.1-21l21,12.1L178.5,258.4z M228.5,236.2l-59.4-34.3
			c-6.9-4-9.2-12.8-5.3-19.6c1.9-3.3,5-5.7,8.7-6.7c3.7-1,7.6-0.5,10.9,1.4l91.8,53C263.2,242.1,244,245.1,228.5,236.2L228.5,236.2z
			 M474.8,228.7c-16.6,21.6-30.3,45.4-40.7,70.7c-1.6,3.9-4.7,6.8-8.7,8.2s-8.2,1-11.9-1.2c-3.3-1.9-5.7-5-6.7-8.7
			c-1-3.7-0.5-7.6,1.4-10.9l50.7-87.8l11.1,6.4c4,2.3,6.7,6.1,7.6,10.6C478.7,220.5,477.6,225,474.8,228.7L474.8,228.7z"/>
	</g>
</g>
</svg>
