<?xml version="1.0" encoding="utf-8"?>
<!-- Generator: Adobe Illustrator 25.2.1, SVG Export Plug-In . SVG Version: 6.00 Build 0)  -->
<svg version="1.1" id="Capa_1" xmlns="http://www.w3.org/2000/svg" xmlns:xlink="http://www.w3.org/1999/xlink" x="0px" y="0px"
	 viewBox="0 0 512 512" style="enable-background:new 0 0 512 512;" xml:space="preserve">
<style type="text/css">
	.st0{fill:#EA8A1D;}
</style>
<g>
	<path class="st0" d="M146,442c0-5.5-4.5-10-10-10H70c-5.5,0-10,4.5-10,10s4.5,10,10,10h66C141.5,452,146,447.5,146,442z"/>
	<path class="st0" d="M502,102H206V70c0-38.6-31.4-70-70-70H70C31.4,0,0,31.4,0,70v107c0,5.5,4.5,10,10,10s10-4.5,10-10V70
		c0-27.6,22.4-50,50-50h66c27.6,0,50,22.4,50,50v323.1c-12.7-13-30.4-21.1-50-21.1H70c-18.7,0-36.3,7.3-49.5,20.5
		c-0.2,0.2-0.3,0.3-0.5,0.5V267c0-5.5-4.5-10-10-10s-10,4.5-10,10v175c0,38.6,31.4,70,70,70h432c5.5,0,10-4.5,10-10V112
		C512,106.5,507.5,102,502,102z M347.9,122L492,266.1v99L248.9,122L347.9,122z M492,237.9L376.1,122H492V237.9z M220.6,122
		L492,393.4V492h-0.4L206,206.4V122L220.6,122z M364.3,492L206,333.7v-99L463.3,492H364.3z M20,442c0-27.7,22.4-50,50-50h66
		c27.6,0,50,22.4,50,50c0,27.7-22.4,50-50,50H70C42.4,492,20,469.6,20,442z M206,442v-80l130,130H185C198.7,478.6,206,460.8,206,442
		L206,442z"/>
	<circle class="st0" cx="10" cy="222" r="10"/>
</g>
</svg>
