<?xml version="1.0" encoding="utf-8"?>
<!-- Generator: Adobe Illustrator 25.2.0, SVG Export Plug-In . SVG Version: 6.00 Build 0)  -->
<svg version="1.1" id="Capa_1" xmlns="http://www.w3.org/2000/svg" xmlns:xlink="http://www.w3.org/1999/xlink" x="0px" y="0px"
	 viewBox="0 0 512 512" style="enable-background:new 0 0 512 512;" xml:space="preserve">
<style type="text/css">
	.st0{fill:#EA8A1D;}
</style>
<g id="XMLID_869_">
	<g id="XMLID_2_">
		<path id="XMLID_257_" class="st0" d="M470.4,8.6c-21.6-15.1-51.6-9.9-66.7,11.8l-66.4,94.8l-20.1-14.1c-4.5-3.2-10.8-2.1-13.9,2.5
			c-3.2,4.5-2.1,10.8,2.5,13.9l21.6,15.1c-27.7,0.2-53.8,11.1-73.4,30.7l-6.7,6.7l-6.7-6.7c-3.4-3.4-7-6.5-10.8-9.4
			c14-8.3,26.1-19.5,35.5-33c13.4-19.2,20.5-41.8,20.5-65.2c0-5.5-4.5-10-10-10c-27.7,0-54,10.1-74.4,27.6c-0.7-1.7-1.5-3.4-2.4-5
			c-7.5-13.1-22.4-19.9-36.9-18.1c-5.7-13.6-18.8-22.9-34.2-22.9c-15.1,0-28.4,9.4-34.1,22.9c-14.6-1.9-29.3,4.9-37,18.2
			c-7.5,13.1-6,29.3,2.8,41c-9,11.7-10.4,27.8-2.7,41.1c0.8,1.4,1.7,2.7,2.7,4c-21.7,3.8-38.2,22.8-38.2,45.5v84.2c0,32,26,58,58,58
			h43l35,35c-20.5,38.6-34.9,80-42.7,123.2c-0.7,3.8,0.9,7.7,4.1,10c1.7,1.2,3.7,1.8,5.7,1.8c1.7,0,3.5-0.5,5-1.4
			c33.3-19.4,63.7-43.3,90.5-71c7.7,6.9,17.5,10.4,27.3,10.4c10.5,0,21-4,28.9-12l23.5-23.5h127.3c25.5,0,46.2-20.7,46.2-46.2v-84.2
			c0-25.8-17-47.8-40.4-55.3c-0.8-9.3-2.7-18.4-5.9-27c1.1,0.4,2.2,0.6,3.3,0.6c3.2,0,6.3-1.5,8.2-4.3c3.2-4.5,2.1-10.8-2.5-13.9
			l-20.1-14.1l66.4-94.8C497.3,53.7,492.1,23.8,470.4,8.6L470.4,8.6z M254.2,191.2l13.8-13.8c16.1-16.1,37.4-24.9,60.1-24.9
			s44.1,8.8,60.1,24.9c13.3,13.3,21.6,30.3,24.1,48.6H82c2.2-16.6,9.3-32.1,20.5-44.8c6.6,6.3,15.5,10.1,25.3,10.1
			c15.1,0,28.4-9.4,34.1-22.9c11.8,1.6,23.7-2.6,31.9-11.3c12.2,4.2,23.3,11.1,32.5,20.3l13.8,13.8
			C244,195.1,250.3,195.1,254.2,191.2L254.2,191.2z M265.1,66.2c-3.7,33.3-24.6,62-55.6,75.6c-2.1-0.9-4.2-1.8-6.4-2.6
			c2-10.4-0.5-21.4-6.9-29.9C211.5,85.2,236.9,69.4,265.1,66.2z M73.9,78.2c4.4-7.6,14.3-10.6,22.5-6.7c3,1.4,6.4,1.2,9.2-0.4
			c2.8-1.6,4.7-4.6,5-7.8c0.8-9.1,8.3-16.2,17.1-16.2c8.8,0,16.3,7.1,17.1,16.1c0.3,3.3,2.1,6.2,5,7.8c2.8,1.6,6.3,1.8,9.2,0.4
			c8.2-3.9,18.1-0.9,22.5,6.7c4.4,7.6,2,17.7-5.4,22.9c-2.7,1.9-4.3,4.9-4.3,8.2c0,3.3,1.6,6.3,4.3,8.2c7.5,5.2,9.9,15.2,5.5,22.9
			c-4.4,7.6-14.3,10.6-22.5,6.7c-3-1.4-6.4-1.2-9.2,0.4c-2.8,1.6-4.7,4.6-5,7.8c-0.8,9.1-8.3,16.2-17.1,16.2
			c-8.8,0-16.3-7.1-17.1-16.1c-0.3-3.3-2.1-6.2-5-7.8c-1.5-0.9-3.3-1.3-5-1.3c-1.4,0-2.9,0.3-4.3,0.9c-8.2,3.9-18.1,0.9-22.5-6.7
			c-4.4-7.6-2-17.6,5.4-22.9c2.7-1.9,4.3-4.9,4.3-8.2s-1.6-6.3-4.3-8.2C71.9,95.9,69.5,85.9,73.9,78.2z M67.4,173.6h15.5
			c-11.6,15.1-18.8,32.9-21,51.9c-11.8-2.5-20.7-13.1-20.7-25.6C41.2,185.4,52.9,173.6,67.4,173.6L67.4,173.6z M138.9,481.1
			c7.5-31,18.5-60.9,33.1-89.2l33.7,33.7C185.5,446.5,163.1,465.1,138.9,481.1L138.9,481.1z M426.9,394.6H319.6l52.5-52.5h54.8
			c14.5,0,26.2,11.8,26.2,26.2C453.1,382.8,441.4,394.6,426.9,394.6L426.9,394.6z M453.1,284.1v46.2c-7.5-5.2-16.5-8.2-26.2-8.2
			H292.2c-5.5,0-10,4.5-10,10c0,5.5,4.5,10,10,10h51.7L262,424c-8.2,8.2-21.4,8.2-29.6,0l-81.9-81.9h51.6c5.5,0,10-4.5,10-10
			c0-5.5-4.5-10-10-10h-123c-21,0-38-17-38-38v-46.2c7.5,5.2,16.5,8.2,26.2,8.2h347.7C436.1,246.1,453.1,263.1,453.1,284.1z
			 M465.8,63.9l-66.4,94.8l-45.7-32l66.4-94.8c8.8-12.6,26.3-15.7,38.9-6.9C471.5,33.9,474.6,51.3,465.8,63.9L465.8,63.9z"/>
		<path id="XMLID_268_" class="st0" d="M442.7,37.9c-2.6,0-5.2,1.1-7.1,2.9s-2.9,4.4-2.9,7.1s1.1,5.2,2.9,7.1s4.4,2.9,7.1,2.9
			c2.6,0,5.2-1.1,7.1-2.9c1.9-1.9,2.9-4.4,2.9-7.1s-1.1-5.2-2.9-7.1C447.9,38.9,445.3,37.9,442.7,37.9z"/>
		<path id="XMLID_269_" class="st0" d="M127.8,119.3c2.6,0,5.2-1.1,7.1-2.9c1.9-1.9,2.9-4.4,2.9-7.1c0-2.6-1.1-5.2-2.9-7.1
			c-1.9-1.9-4.4-2.9-7.1-2.9c-2.6,0-5.2,1.1-7.1,2.9c-1.9,1.9-2.9,4.4-2.9,7.1c0,2.6,1.1,5.2,2.9,7.1
			C122.5,118.2,125.1,119.3,127.8,119.3z"/>
		<path id="XMLID_270_" class="st0" d="M247.2,322.1c-2.6,0-5.2,1.1-7.1,2.9c-1.9,1.9-2.9,4.4-2.9,7.1c0,2.6,1.1,5.2,2.9,7.1
			c1.9,1.9,4.4,2.9,7.1,2.9c2.6,0,5.2-1.1,7.1-2.9c1.9-1.9,2.9-4.4,2.9-7.1c0-2.6-1.1-5.2-2.9-7.1
			C252.4,323.2,249.8,322.1,247.2,322.1z"/>
	</g>
</g>
</svg>
