<?xml version="1.0" encoding="utf-8"?>
<!-- Generator: Adobe Illustrator 25.2.0, SVG Export Plug-In . SVG Version: 6.00 Build 0)  -->
<svg version="1.1" id="Capa_1" xmlns="http://www.w3.org/2000/svg" xmlns:xlink="http://www.w3.org/1999/xlink" x="0px" y="0px"
	 viewBox="0 0 512 512" style="enable-background:new 0 0 512 512;" xml:space="preserve">
<style type="text/css">
	.st0{fill:#FFFFFF;}
</style>
<path class="st0" d="M191,282.7c15.4,15.4,35.1,24.8,56.5,27.4c59,6.9,107.5-37.5,107.5-96.9v-15.3c0-8.3-6.7-15.1-15.1-15.1l0,0
	c-9.4,0-16.9,7.6-16.9,16.9v13.8c0,38.6-33.5,69.4-71.9,64.8c-14.2-1.7-27.3-8-37.5-18.2c-12.1-12-18.7-28.2-18.7-45.3v-16.4
	c0-8.6-7-15.6-15.6-15.6l0,0c-9.1,0-16.4,7.4-16.4,16.4v15.6C163,240.4,173,264.6,191,282.7z"/>
<path class="st0" d="M443.2,442.2L416,142.6c-0.8-8.3-7.7-14.6-16-14.6h-48v-2c0-25.7-10-49.9-28-68c-18.1-18.1-42.2-28-68-28
	c-52.9,0-96,43.1-96,96v2h-48c-8.3,0-15.2,6.3-15.9,14.6L68.8,442.2c-1.6,17.9,4.4,35.7,16.5,49s29.3,20.8,47.3,20.8h246.9
	c18,0,35.2-7.6,47.3-20.8S444.8,460.1,443.2,442.2z M192,126c0-35.3,28.7-64,64-64c17.2,0,33.3,6.6,45.3,18.7
	c12.1,12,18.7,28.2,18.7,45.3v2H192V126z M403.1,469.6c-6.1,6.7-14.5,10.4-23.6,10.4H132.6c-9.1,0-17.5-3.7-23.6-10.4
	c-6.1-6.7-9.1-15.4-8.2-24.5L126.6,160h21.5l0,0h217.4l0,0h19.9l25.9,285.1C412.1,454.2,409.2,462.9,403.1,469.6z"/>
</svg>
