<?xml version="1.0" encoding="utf-8"?>
<!-- Generator: Adobe Illustrator 25.2.0, SVG Export Plug-In . SVG Version: 6.00 Build 0)  -->
<svg version="1.1" id="Capa_1" xmlns="http://www.w3.org/2000/svg" xmlns:xlink="http://www.w3.org/1999/xlink" x="0px" y="0px"
	 viewBox="0 0 512 512" style="enable-background:new 0 0 512 512;" xml:space="preserve">
<style type="text/css">
	.st0{fill:#EA8A1D;}
</style>
<g id="XMLID_123_">
	<g id="XMLID_124_">
		<g id="XMLID_250_">
			<path id="XMLID_251_" class="st0" d="M198,140c2.6,0,5.2-1.1,7.1-2.9c1.9-1.9,2.9-4.4,2.9-7.1s-1.1-5.2-2.9-7.1
				c-1.9-1.9-4.4-2.9-7.1-2.9s-5.2,1.1-7.1,2.9s-2.9,4.4-2.9,7.1c0,2.6,1.1,5.2,2.9,7.1S195.4,140,198,140z"/>
			<path id="XMLID_254_" class="st0" d="M249.2,183.6c-3.9-3.9-10.2-3.9-14.1,0l-51.8,51.8L160.9,213c-3.9-3.9-10.2-3.9-14.1,0
				l-31.5,31.5c-1.9,1.9-2.9,4.4-2.9,7.1s1.1,5.2,2.9,7.1l60.9,60.9c2,2,4.5,2.9,7.1,2.9s5.1-1,7.1-2.9l90.3-90.3
				c1.9-1.9,2.9-4.4,2.9-7.1s-1.1-5.2-2.9-7.1L249.2,183.6z M183.3,298.4l-46.8-46.8l17.4-17.4l22.3,22.3c1.9,1.9,4.4,2.9,7.1,2.9
				s5.2-1.1,7.1-2.9l51.8-51.8l17.4,17.4L183.3,298.4z"/>
			<path id="XMLID_271_" class="st0" d="M497.7,299.9l-93-53.7l5-8.7c2.8-4.8,1.1-10.9-3.7-13.7c-3.2-1.9-7-1.7-10,0V90
				c0-27.6-22.4-50-50-50h-4v-8c0-17.6-14.4-32-32-32s-32,14.4-32,32v8H118v-8c0-17.6-14.4-32-32-32S54,14.4,54,32v8h-4
				C22.4,40,0,62.4,0,90v256c0,27.6,22.4,50,50,50h203.5l-18.3,31.7c-4,6.9-5.1,15-3,22.8c2.1,7.7,7,14.2,14,18.2l5.2,3L236.8,497
				c-2.8,4.8-1.1,10.9,3.7,13.7c1.6,0.9,3.3,1.3,5,1.3c3.5,0,6.8-1.8,8.7-5l14.6-25.3l5.2,3c4.7,2.7,9.9,4,14.9,4
				c10.4,0,20.5-5.4,26-15l40-69.3c8.3-14.3,3.3-32.7-11-41l-5.2-3l12-20.8l93,53.7c4.4,2.5,9.3,3.8,14.2,3.8c2.5,0,5-0.3,7.4-1
				c7.4-2,13.5-6.7,17.4-13.3l25.4-44C516.1,325.2,511.4,307.7,497.7,299.9L497.7,299.9z M398.8,344.4l34-58.9l24.2,14l-34,58.9
				L398.8,344.4z M298,32c0-6.6,5.4-12,12-12s12,5.4,12,12v36c0,6.6-5.4,12-12,12s-12-5.4-12-12V32z M74,32c0-6.6,5.4-12,12-12
				s12,5.4,12,12v36c0,6.6-5.4,12-12,12s-12-5.4-12-12V32z M337.5,394.4l-40,69.3c-2.8,4.8-8.9,6.4-13.7,3.7l-27.7-16
				c-2.3-1.3-4-3.5-4.7-6.1s-0.3-5.3,1-7.6l40-69.3c1.3-2.3,3.5-4,6.1-4.7c0.9-0.2,1.7-0.3,2.6-0.3c1.7,0,3.4,0.5,5,1.3l27.7,16
				C338.7,383.5,340.3,389.7,337.5,394.4L337.5,394.4z M321.4,350.5l-5.2-3c-6.9-4-15-5.1-22.8-3s-14.2,7-18.2,14L265,376H50
				c-16.5,0-30-13.5-30-30V140h133c5.5,0,10-4.5,10-10s-4.5-10-10-10H20V90c0-16.5,13.5-30,30-30h4v8c0,17.6,14.4,32,32,32
				s32-14.4,32-32v-8h160v8c0,17.6,14.4,32,32,32s32-14.4,32-32v-8h4c16.5,0,30,13.5,30,30v30H243c-5.5,0-10,4.5-10,10s4.5,10,10,10
				h133v89.6l-7.7-4.4c-4.8-2.8-10.9-1.1-13.7,3.7c-2.8,4.8-1.1,10.9,3.7,13.7l19.1,11l-34,58.9l-19.1-11
				c-4.8-2.8-10.9-1.1-13.7,3.7c-2.8,4.8-1.1,10.9,3.7,13.7l19.1,11L321.4,350.5z M394.7,263.5l20.8,12l-34,58.9l-20.8-12
				L394.7,263.5z M490.9,328.9l-25.4,44c-1.1,2-3,3.4-5.2,4s-4.5,0.3-6.5-0.9l-13.4-7.7l34-58.9l13.4,7.7
				C491.8,319.5,493.2,324.8,490.9,328.9z"/>
		</g>
	</g>
</g>
</svg>
