<?xml version="1.0" encoding="utf-8"?>
<!-- Generator: Adobe Illustrator 25.2.0, SVG Export Plug-In . SVG Version: 6.00 Build 0)  -->
<svg version="1.1" id="Capa_1" xmlns="http://www.w3.org/2000/svg" xmlns:xlink="http://www.w3.org/1999/xlink" x="0px" y="0px"
	 viewBox="0 0 512 512" style="enable-background:new 0 0 512 512;" xml:space="preserve">
<style type="text/css">
	.st0{fill:#EA8A1D;}
</style>
<path class="st0" d="M184,296c-4.4,0-8,3.6-8,8v16c0,22.1,17.9,40,40,40h8v40c0,0.2,0.1,1.1,0.1,1.3l8,48c0.6,3.9,4,6.7,7.9,6.7h8
	v40h16v-40h8c3.9,0,7.2-2.8,7.9-6.7l8-48c0-0.2,0.1-1.1,0.1-1.3v-40h8c22.1,0,40-17.9,40-40v-16c0-4.4-3.6-8-8-8h-8v-16h8
	c4.4,0,8-3.6,8-8v-32c0-4.4-3.6-8-8-8h-8v-16h8c4.4,0,8-3.6,8-8v-88c0-22.1-17.9-40-40-40h-8V24c0-4.4-3.6-8-8-8h-48
	c-4.4,0-8,3.6-8,8v56h-8c-22.1,0-40,17.9-40,40v88c0,4.4,3.6,8,8,8h8v16h-8c-4.4,0-8,3.6-8,8v32c0,4.4,3.6,8,8,8h8v16H184z
	 M265.2,440h-18.4l-5.3-32h29.1L265.2,440z M272,392h-32v-32h32V392z M320,320c0,13.3-10.7,24-24,24h-80c-13.3,0-24-10.7-24-24v-8
	h128V320z M304,296h-96v-16h96V296z M240,32h32v48h-32V32z M192,120c0-13.3,10.7-24,24-24h80c13.3,0,24,10.7,24,24v80H192V120z
	 M208,216h96v16h-96V216z M192,248h128v16H192V248z"/>
<path class="st0" d="M224,128h32v-16h-40c-4.4,0-8,3.6-8,8v40h16V128z"/>
<path class="st0" d="M272,112h16v16h-16V112z"/>
</svg>
