<?xml version="1.0" encoding="utf-8"?>
<!-- Generator: Adobe Illustrator 25.2.1, SVG Export Plug-In . SVG Version: 6.00 Build 0)  -->
<svg version="1.1" id="Capa_1" xmlns="http://www.w3.org/2000/svg" xmlns:xlink="http://www.w3.org/1999/xlink" x="0px" y="0px"
	 viewBox="0 0 512 512" style="enable-background:new 0 0 512 512;" xml:space="preserve">
<style type="text/css">
	.st0{fill:#E99400;}
</style>
<g>
	<path class="st0" d="M256,246.2c33.1,0,60-26.9,60-60s-26.9-60-60-60c-33.1,0-60,26.9-60,60S222.9,246.2,256,246.2z M256,156.2
		c16.5,0,30,13.5,30,30s-13.5,30-30,30c-16.5,0-30-13.5-30-30S239.5,156.2,256,156.2z"/>
	<path class="st0" d="M446.9,345H346.5c46.9-44.7,89.5-88.6,89.5-165C436,77.1,358.7,0,256,0C153.1,0,76,77.3,76,180
		c0,76.4,42.7,120.3,89.5,165H65.1L10.3,512h491.4L446.9,345z M106,180c0-86.9,63.1-150,150-150c86.9,0,150,63.1,150,150
		c0,97.2-82.1,131.7-150,215.4c-20.4-25.2-42.2-45.9-63.5-66.1C144.2,283.3,106,247,106,180L106,180z M63.9,445H172v-30H73.7
		l13.1-40H196v-0.7c39.8,39.5,50.6,59.3,60,71.1c9.6-12.1,20-31.5,60-71.1v0.7h109.1l13.1,40H340v30h108.1l12.2,37H51.7L63.9,445z"
		/>
</g>
</svg>
