<?xml version="1.0" encoding="utf-8"?>
<!-- Generator: Adobe Illustrator 25.2.0, SVG Export Plug-In . SVG Version: 6.00 Build 0)  -->
<svg version="1.1" id="_x31__x2C_5" xmlns="http://www.w3.org/2000/svg" xmlns:xlink="http://www.w3.org/1999/xlink" x="0px"
	 y="0px" viewBox="0 0 438 438" style="enable-background:new 0 0 438 438;" xml:space="preserve">
<style type="text/css">
	.st0{fill:#70706C;}
</style>
<path class="st0" d="M219,201.3c-47.1,0-85.3-38.3-85.3-85.3S172,30.7,219,30.7S304.3,69,304.3,116S266.1,201.3,219,201.3z
	 M219,62.7c-29.4,0-53.3,23.9-53.3,53.3s23.9,53.3,53.3,53.3s53.3-23.9,53.3-53.3S248.4,62.7,219,62.7z"/>
<path class="st0" d="M373.7,414.7c-8.8,0-16-7.2-16-16v-53.3c0-38.2-31.1-69.3-69.3-69.3H149.7c-38.2,0-69.3,31.1-69.3,69.3v53.3
	c0,8.8-7.2,16-16,16s-16-7.2-16-16v-53.3c0-55.9,45.5-101.3,101.3-101.3h138.7c55.9,0,101.3,45.5,101.3,101.3v53.3
	C389.7,407.5,382.5,414.7,373.7,414.7z"/>
</svg>
