<?xml version="1.0" encoding="utf-8"?>
<!-- Generator: Adobe Illustrator 25.2.0, SVG Export Plug-In . SVG Version: 6.00 Build 0)  -->
<svg version="1.1" id="Capa_1" xmlns="http://www.w3.org/2000/svg" xmlns:xlink="http://www.w3.org/1999/xlink" x="0px" y="0px"
	 viewBox="0 0 512 512" style="enable-background:new 0 0 512 512;" xml:space="preserve">
<style type="text/css">
	.st0{fill:#EA8A1D;}
</style>
<g id="XMLID_1135_">
	<g id="XMLID_2272_">
		<path id="XMLID_2275_" class="st0" d="M136.7,59.9c-1.8-4.3-5.9-7.1-10.6-7.1c0,0,0,0,0,0c-4.7,0-8.8,2.8-10.6,7.1
			c0,0.1-0.1,0.2-0.1,0.2L92,121.8c-2,5.2,0.6,10.9,5.8,12.9c4.8,1.8,10.1-0.3,12.4-4.7h31.6c1.7,3.3,5.2,5.4,8.9,5.4
			c1.2,0,2.4-0.2,3.5-0.6c5.2-1.9,7.8-7.7,5.8-12.9l-23.3-61.6C136.8,60.1,136.7,60,136.7,59.9z M134.2,110h-16.3l8.2-21.5
			L134.2,110z"/>
		<path id="XMLID_2276_" class="st0" d="M62.1,135.4c5.5,0,10-4.5,10-10V72.9h4.1c5.5,0,10-4.5,10-10s-4.5-10-10-10h-28
			c-5.5,0-10,4.5-10,10s4.5,10,10,10h3.9v52.5C52.1,130.9,56.6,135.4,62.1,135.4z"/>
		<path id="XMLID_2277_" class="st0" d="M190.8,135.1c5.5,0,10-4.5,10-10V72.6h3.9c5.5,0,10-4.5,10-10s-4.5-10-10-10h-28
			c-5.5,0-10,4.5-10,10s4.5,10,10,10h4.1v52.5C180.8,130.7,185.3,135.1,190.8,135.1z"/>
		<path id="XMLID_2278_" class="st0" d="M244.7,72.6h4.1v52.5c0,5.5,4.5,10,10,10s10-4.5,10-10V72.6h3.9c5.5,0,10-4.5,10-10
			s-4.5-10-10-10h-28c-5.5,0-10,4.5-10,10S239.2,72.6,244.7,72.6L244.7,72.6z"/>
		<path id="XMLID_2281_" class="st0" d="M371.3,94.1c0-22.8-18.5-41.3-41.3-41.3s-41.3,18.5-41.3,41.3s18.5,41.3,41.3,41.3
			S371.3,116.9,371.3,94.1z M308.8,94.1c0-11.7,9.5-21.3,21.3-21.3s21.3,9.5,21.3,21.3c0,11.7-9.5,21.3-21.3,21.3
			S308.8,105.8,308.8,94.1z"/>
		<path id="XMLID_2287_" class="st0" d="M473.8,94.1c0-22.8-18.5-41.3-41.3-41.3s-41.3,18.5-41.3,41.3s18.5,41.3,41.3,41.3
			S473.8,116.9,473.8,94.1z M411.3,94.1c0-11.7,9.5-21.3,21.3-21.3s21.3,9.5,21.3,21.3c0,11.7-9.5,21.3-21.3,21.3
			C420.8,115.4,411.3,105.8,411.3,94.1z"/>
		<path id="XMLID_2288_" class="st0" d="M325,357c-2.6,0-5.2,1.1-7.1,2.9s-2.9,4.4-2.9,7.1s1.1,5.2,2.9,7.1s4.4,2.9,7.1,2.9
			s5.2-1.1,7.1-2.9s2.9-4.4,2.9-7.1s-1.1-5.2-2.9-7.1S327.6,357,325,357z"/>
		<path id="XMLID_2291_" class="st0" d="M502,0H301c-5.5,0-10,4.5-10,10s4.5,10,10,10h191v148H20V20h191c5.5,0,10-4.5,10-10
			s-4.5-10-10-10H10C4.5,0,0,4.5,0,10v492c0,5.5,4.5,10,10,10h492c5.5,0,10-4.5,10-10V10C512,4.5,507.5,0,502,0z M145,234.4
			c23.2,0,42,18.8,42,42s-18.8,42-42,42s-42-18.8-42-42S121.8,234.4,145,234.4z M145,214.4c-7.7,0-15.2,1.4-22,4V188h44v30.4
			C160.2,215.8,152.7,214.4,145,214.4z M290,492V242h148v250H290z M492,492h-34V232c0-5.5-4.5-10-10-10H280c-5.5,0-10,4.5-10,10v260
			H20V188h83v42.8c-12.3,11.3-20,27.6-20,45.6c0,34.2,27.8,62,62,62s62-27.8,62-62c0-18-7.7-34.2-20-45.6V188h305V492z"/>
		<path id="XMLID_2295_" class="st0" d="M136.3,286.4h17.3c5.5,0,10-4.5,10-10s-4.5-10-10-10h-17.3c-5.5,0-10,4.5-10,10
			S130.8,286.4,136.3,286.4L136.3,286.4z"/>
		<path id="XMLID_2308_" class="st0" d="M256,20c2.6,0,5.2-1.1,7.1-2.9s2.9-4.4,2.9-7.1s-1.1-5.2-2.9-7.1S258.6,0,256,0
			s-5.2,1.1-7.1,2.9S246,7.4,246,10s1.1,5.2,2.9,7.1S253.4,20,256,20z"/>
	</g>
</g>
</svg>
