<?xml version="1.0" encoding="utf-8"?>
<!-- Generator: Adobe Illustrator 25.2.0, SVG Export Plug-In . SVG Version: 6.00 Build 0)  -->
<svg version="1.1" id="Capa_1" xmlns="http://www.w3.org/2000/svg" xmlns:xlink="http://www.w3.org/1999/xlink" x="0px" y="0px"
	 viewBox="0 0 512 512" style="enable-background:new 0 0 512 512;" xml:space="preserve">
<style type="text/css">
	.st0{fill:#FFFFFF;}
</style>
<g id="Outline">
	<path class="st0" d="M304,104c0-26.5-21.5-48-48-48s-48,21.5-48,48s21.5,48,48,48C282.5,152,304,130.5,304,104z M224,104
		c0-17.7,14.3-32,32-32s32,14.3,32,32s-14.3,32-32,32C238.3,136,224,121.7,224,104z"/>
	<path class="st0" d="M251.4,238.6c2.8,1.9,6.4,1.9,9.2,0c15.2-11.2,29.1-24,41.4-38.3c27.5-31.6,42-64.8,42-96.2
		c0-48.6-39.4-88-88-88s-88,39.4-88,88c0,31.4,14.5,64.7,42,96.2C222.3,214.5,236.2,227.4,251.4,238.6L251.4,238.6z M256,32
		c39.7,0,72,32.3,72,72c0,57.2-55.5,105-72,118c-16.5-12.9-72-60.6-72-118C184,64.3,216.3,32,256,32z"/>
	<path class="st0" d="M149.7,431.6l4.7-15.3l16,4.9l-4.7,15.3L149.7,431.6z"/>
	<path class="st0" d="M181.7,441.4l4.7-15.3l16,4.9l-4.7,15.3L181.7,441.4z"/>
	<path class="st0" d="M213.7,451.3l4.7-15.3l16,4.9l-4.7,15.3L213.7,451.3z"/>
	<path class="st0" d="M466.4,200.4l-120-36.9l-4.7,15.3l95.2,29.3L256,263.6L75.2,208l95.1-29.3l-4.7-15.3l-120,36.9
		c-3.4,1-5.6,4.1-5.6,7.6v216c0,3.5,2.3,6.6,5.6,7.6l208,64c1.5,0.5,3.2,0.5,4.7,0l208-64c3.4-1,5.6-4.1,5.6-7.6V208
		C472,204.5,469.7,201.4,466.4,200.4L466.4,200.4z M56,218.8l192,59.1v199.3L56,418.1V218.8z M264,477.2V277.9l192-59.1v199.3
		L264,477.2z"/>
	<path class="st0" d="M357.7,416.5l16-4.9l4.7,15.3l-16,4.9L357.7,416.5z"/>
	<path class="st0" d="M389.7,406.6l16-4.9l4.7,15.3l-16,4.9L389.7,406.6z"/>
	<path class="st0" d="M421.7,396.8l16-4.9l4.7,15.3l-16,4.9L421.7,396.8z"/>
	<path class="st0" d="M192,339.1c4.4,0,8-3.6,8-8v-40c0-3.5-2.3-6.6-5.6-7.6l-80-24.6c-4.2-1.3-8.7,1.1-10,5.3
		c-0.2,0.8-0.4,1.6-0.4,2.4v40c0,3.5,2.3,6.6,5.6,7.6l80,24.6C190.4,339,191.2,339.1,192,339.1z M184,320.2l-64-19.7v-23.3l64,19.7
		V320.2z"/>
	<path class="st0" d="M408,306.5v-40c0-4.4-3.6-8-8-8c-0.8,0-1.6,0.1-2.4,0.4l-80,24.6c-3.4,1-5.6,4.1-5.6,7.6v40c0,4.4,3.6,8,8,8
		c0.8,0,1.6-0.1,2.4-0.4l80-24.6C405.7,313.1,408,310,408,306.5z M392,300.6l-64,19.7V297l64-19.7V300.6z"/>
</g>
</svg>
