<?xml version="1.0" encoding="utf-8"?>
<!-- Generator: Adobe Illustrator 24.3.0, SVG Export Plug-In . SVG Version: 6.00 Build 0)  -->
<svg version="1.1" id="Capa_1" xmlns="http://www.w3.org/2000/svg" xmlns:xlink="http://www.w3.org/1999/xlink" x="0px" y="0px"
	 viewBox="0 0 100 100" style="enable-background:new 0 0 100 100;" xml:space="preserve">
<style type="text/css">
	.st0{fill:#FFFFFF;}
</style>
<g>
	<path class="st0" d="M72.4,0.2H27.6C12.4,0.2,0,12.6,0,27.8v44.8c0,15.2,12.4,27.6,27.6,27.6h44.8c15.2,0,27.6-12.4,27.6-27.6V27.8
		C100,12.6,87.6,0.2,72.4,0.2L72.4,0.2z M91.1,72.7c0,10.3-8.4,18.7-18.7,18.7H27.6C17.3,91.4,8.9,83,8.9,72.7V27.8
		c0-10.3,8.4-18.7,18.7-18.7h44.8c10.3,0,18.7,8.4,18.7,18.7C91.1,27.8,91.1,72.7,91.1,72.7z"/>
	<path class="st0" d="M50,24.5c-14.2,0-25.8,11.6-25.8,25.8S35.8,76,50,76s25.8-11.6,25.8-25.8S64.2,24.5,50,24.5L50,24.5z M50,67.1
		c-9.3,0-16.9-7.6-16.9-16.9S40.7,33.3,50,33.3s16.9,7.6,16.9,16.9C66.9,59.6,59.3,67.1,50,67.1L50,67.1z"/>
	<path class="st0" d="M76.8,17c-1.7,0-3.4,0.7-4.6,1.9c-1.2,1.2-1.9,2.9-1.9,4.6s0.7,3.4,1.9,4.6c1.2,1.2,2.9,1.9,4.6,1.9
		s3.4-0.7,4.6-1.9c1.2-1.2,1.9-2.9,1.9-4.6s-0.7-3.4-1.9-4.6C80.2,17.7,78.6,17,76.8,17L76.8,17z"/>
</g>
</svg>
