<?xml version="1.0" encoding="utf-8"?>
<!-- Generator: Adobe Illustrator 25.1.0, SVG Export Plug-In . SVG Version: 6.00 Build 0)  -->
<svg version="1.1" id="Capa_1" xmlns="http://www.w3.org/2000/svg" xmlns:xlink="http://www.w3.org/1999/xlink" x="0px" y="0px"
	 viewBox="0 0 177.4 43.6" style="enable-background:new 0 0 177.4 43.6;" xml:space="preserve">
<style type="text/css">
	.st0{fill:#FFFFFF;}
</style>
<g>
	<path class="st0" d="M171.3,35.1l-2.8-4l-5.6-8.3l4.4-4.7l2.6-2.7l0.2-0.2c0.3-0.3,0.2-0.6,0-0.7c-0.1-0.1-0.3-0.2-0.5-0.2h-2.9
		c-0.2,0-0.4,0.1-0.5,0.2c0,0,0,0,0,0l-9.9,10.5v-8.8V8.7c0-0.2-0.1-0.3-0.2-0.5c-0.1-0.1-0.3-0.2-0.5-0.2h-2.3
		c-0.2,0-0.4,0.1-0.5,0.2c-0.1,0.1-0.2,0.3-0.2,0.5v7.7l0,0v19c0,0.2,0.1,0.3,0.2,0.5c0.1,0.1,0.3,0.2,0.5,0.2h2.3
		c0.2,0,0.4-0.1,0.5-0.2c0.1-0.1,0.2-0.3,0.2-0.5V30l4.3-4.6l2.9,4.3h0l4,6c0.1,0.1,0.2,0.3,0.6,0.3h2.9c0.2,0,0.4-0.1,0.5-0.2
		C171.4,35.7,171.5,35.4,171.3,35.1z"/>
	<g>
		<path class="st0" d="M145.9,8.2h0.4l0.6,1.7l0.6-1.7h0.4v2.1h-0.3V9c0,0,0-0.1,0-0.2c0-0.1,0-0.2,0-0.3l-0.6,1.7h-0.3l-0.6-1.7
			v0.1v0.2c0,0.1,0,0.2,0,0.2v1.2h-0.3V8.2z"/>
		<path class="st0" d="M150,9.1c0.1,0,0.2,0,0.3-0.1c0.1-0.1,0.1-0.2,0.1-0.3c0-0.1,0-0.2-0.2-0.3c-0.1,0-0.1,0-0.2,0h-0.7v0.7H150z
			 M149.1,8.2h0.9c0.2,0,0.3,0,0.4,0.1c0.2,0.1,0.3,0.3,0.3,0.5c0,0.1,0,0.2-0.1,0.3c-0.1,0.1-0.1,0.1-0.2,0.2
			c0.1,0,0.1,0.1,0.2,0.1c0,0.1,0.1,0.1,0.1,0.3l0,0.3c0,0.1,0,0.1,0,0.2c0,0.1,0.1,0.1,0.1,0.1v0h-0.3c0,0,0,0,0-0.1
			c0,0,0-0.1,0-0.2l0-0.3c0-0.1-0.1-0.2-0.2-0.3c0,0-0.1,0-0.2,0h-0.6v0.9h-0.3V8.2z"/>
		<path class="st0" d="M148.5,10.2c-0.1,0-0.1-0.1-0.1-0.2c0-0.1,0.1-0.1,0.1-0.1c0.1,0,0.1,0.1,0.1,0.1
			C148.7,10.2,148.6,10.2,148.5,10.2z"/>
		<path class="st0" d="M151.3,10.2c-0.1,0-0.1-0.1-0.1-0.2c0-0.1,0.1-0.1,0.1-0.1c0.1,0,0.1,0.1,0.1,0.1
			C151.5,10.2,151.4,10.2,151.3,10.2z"/>
	</g>
	<path class="st0" d="M2.2,18.7c1.2,0,2.2-1,2.2-2.2c0-1.2-1-2.3-2.2-2.3c-1.2,0-2.2,1-2.2,2.3C0,17.6,1,18.7,2.2,18.7z"/>
	<path class="st0" d="M175.2,36.2c1.2,0,2.2-1,2.2-2.3c0-1.2-1-2.3-2.2-2.3c-1.2,0-2.2,1-2.2,2.3C173,35.2,174,36.2,175.2,36.2z"/>
	<path class="st0" d="M69.3,22.7L69.3,22.7c0-2.5-0.9-4.6-2.5-6.1l-0.1-0.1l0,0h0c-1.5-1.3-3.5-2-5.9-2c0,0,0,0,0,0c0,0,0,0-0.1,0
		l0,0c-0.1,0-0.1,0-0.2,0c0,0-0.1,0-0.1,0l0,0c0,0,0,0-0.1,0h0c0,0,0,0,0,0c0,0,0,0,0,0c-2.4,0-4.4,0.7-5.9,2h0l-0.1,0.1
		c-1.6,1.4-2.4,3.5-2.5,6v0l0,0l0,12.1c0,0,0,0,0,0c0,0.1,0,0.1,0,0.2v0.6c0,0.2,0.1,0.3,0.2,0.5c0.1,0.1,0.3,0.2,0.5,0.2h2.3
		c0.2,0,0.4-0.1,0.5-0.2c0.1-0.1,0.2-0.3,0.2-0.5v-0.7c0,0,0,0,0-0.1v0V23.1c0-1.8,0.5-3.1,1.3-4c0.8-0.8,2.1-1.3,3.8-1.3
		c1.7,0,2.9,0.5,3.8,1.3c0.8,0.9,1.3,2.2,1.3,4l0,12.5c0,0.2,0.1,0.3,0.2,0.5c0.1,0.1,0.3,0.2,0.5,0.2h2.3c0.2,0,0.4-0.1,0.5-0.2
		c0.1-0.1,0.2-0.3,0.2-0.5v-2c0-0.1,0-0.2,0-0.2V22.7z"/>
	<path class="st0" d="M149.5,22.7L149.5,22.7c0-2.5-0.9-4.6-2.5-6.1l-0.1-0.1l0,0h0c-1.5-1.3-3.5-2-5.9-2c0,0,0,0-0.1,0
		c0,0,0,0-0.1,0l0,0c-0.1,0-0.1,0-0.2,0c0,0-0.1,0-0.1,0l0,0c0,0,0,0-0.1,0h0c0,0,0,0,0,0c0,0,0,0,0,0c-2.4,0-4.4,0.7-5.9,2h0
		l-0.1,0.1c-1.6,1.4-2.4,3.5-2.5,6v0l0,0l0,12.1c0,0,0,0,0,0c0,0.1,0,0.1,0,0.2v0.6c0,0.2,0.1,0.3,0.2,0.5c0.1,0.1,0.3,0.2,0.5,0.2
		h2.3c0.2,0,0.4-0.1,0.5-0.2c0.1-0.1,0.2-0.3,0.2-0.5v-0.7c0,0,0,0,0-0.1v0V23.1c0-1.8,0.5-3.1,1.3-4c0.8-0.8,2.1-1.3,3.8-1.3
		c1.7,0,2.9,0.5,3.8,1.3c0.8,0.9,1.3,2.2,1.3,4v12.5c0,0.2,0.1,0.3,0.2,0.5c0.1,0.1,0.3,0.2,0.5,0.2h2.3c0.2,0,0.4-0.1,0.5-0.2
		c0.1-0.1,0.2-0.3,0.2-0.5v-2c0-0.1,0-0.2,0-0.2V22.7z"/>
	<path class="st0" d="M107.2,16.6C107.2,16.6,107.2,16.6,107.2,16.6c-1.3-1.3-3.4-2-5.9-2c0,0-0.1,0-0.1,0c-2,0-4,0.4-5.7,1.9h0
		v-1.3h0V8.7c0-0.2-0.1-0.3-0.2-0.5C95.2,8.1,95,8,94.8,8h-2.3c-0.2,0-0.4,0.1-0.5,0.2c-0.1,0.1-0.2,0.3-0.2,0.5v6.5l0,0V29l0,0v6.5
		c0,0.2,0.1,0.3,0.2,0.5c0.1,0.1,0.3,0.2,0.5,0.2h2.3c0.2,0,0.4-0.1,0.5-0.2c0.1-0.1,0.2-0.3,0.2-0.5v-1.3c1.5,1.7,3.7,2.3,5.7,2.3
		h0.1c2.4,0,4.5-0.8,5.8-2c2.4-2.3,3-5.9,3-9.1C110.1,22.1,109.6,18.9,107.2,16.6z M106.5,25.3C106.5,25.3,106.5,25.3,106.5,25.3
		L106.5,25.3C106.5,25.4,106.5,25.4,106.5,25.3c0,2.2-0.2,4.2-1,5.6c-0.8,1.4-2,2.3-4.4,2.3c0,0,0,0-0.1,0h0c-2.4,0-3.7-1-4.4-2.3
		c-0.8-1.4-1-3.5-1-5.5v-0.1c0-2.1,0.2-3.7,1-5.1c0.8-1.4,2-2.3,4.4-2.3c0,0,0,0,0,0c0,0,0,0,0,0h0c2.4,0,3.7,0.9,4.4,2.3
		C106.3,21.6,106.5,23.2,106.5,25.3L106.5,25.3z"/>
	<path class="st0" d="M49.2,21.7C49.2,21.7,49.2,21.7,49.2,21.7c0-2.2-0.7-4.1-2.3-5.3c-1.5-1.3-3.7-1.9-6.6-1.9h-0.1c0,0,0,0,0,0
		c-3,0-5.4,0.6-7.2,2.6l0,0l-0.1,0.1c-0.1,0.1-0.3,0.3-0.4,0.5c0,0,0,0,0,0l-0.2,0.2c-0.1,0.1-0.2,0.3-0.1,0.5
		c0,0.2,0.1,0.3,0.2,0.5l0.1,0.1c0,0,0.1,0.1,0.1,0.1l0.4,0.3l1.1,0.9c0.1,0.1,0.3,0.2,0.5,0.2c0.2,0,0.3-0.1,0.4-0.2l0.7-0.8h0
		c0.4-0.5,0.9-0.8,1.4-1c0.8-0.3,1.7-0.5,3.1-0.5h0h0c2,0,3.2,0.4,3.9,1c0.7,0.6,1.1,1.5,1.1,3c0,0,0,0,0,0.1v1.4h-5.9
		c-2.4,0-4.4,0.5-5.8,1.7c-1.4,1.1-2.2,2.8-2.2,4.7v0.1c0,1.6,0.6,3.2,1.7,4.4c1.5,1.5,3.5,2,6.6,2c0,0,0,0,0,0h1.5
		c2.8,0,4.8-0.7,6.1-2.1c1.3-1.4,1.8-3.4,1.8-5.9L49.2,21.7L49.2,21.7z M45.4,28.4c0,1.7-0.4,2.7-0.9,3.1c-1.2,1.1-2.7,1.3-4.6,1.3
		c0,0,0,0,0,0c0,0,0,0,0,0c-1.8,0-3-0.3-3.6-0.8c-0.6-0.5-1-1.1-1-2.2v-0.1c0-1.1,0.3-1.8,1-2.3c0.7-0.5,1.8-0.8,3.5-0.8h0h5.7V28.4
		z"/>
	<path class="st0" d="M129.4,21.7C129.4,21.7,129.4,21.7,129.4,21.7c0-2.2-0.7-4.1-2.3-5.3c-1.5-1.3-3.7-1.9-6.6-1.9h-0.1
		c0,0,0,0,0,0c-3,0-5.4,0.6-7.2,2.6l0,0l-0.1,0.1c-0.1,0.2-0.3,0.3-0.4,0.5c0,0,0,0,0,0l-0.2,0.2c-0.1,0.1-0.2,0.3-0.1,0.5
		c0,0.2,0.1,0.3,0.2,0.5l0.1,0.1c0,0,0.1,0.1,0.1,0.1l0.4,0.3l1.1,0.9c0.1,0.1,0.3,0.2,0.5,0.2c0.2,0,0.3-0.1,0.4-0.2l0.7-0.8l0,0
		c0.4-0.5,0.9-0.8,1.4-1c0.8-0.3,1.7-0.5,3.1-0.5h0l0,0c2,0,3.2,0.4,3.9,1c0.7,0.6,1.1,1.5,1.1,3c0,0,0,0,0,0.1v1.4h-5.9
		c-2.4,0-4.4,0.5-5.8,1.7c-1.4,1.1-2.2,2.8-2.2,4.7v0.1c0,1.6,0.6,3.2,1.7,4.4c1.5,1.5,3.5,2,6.6,2c0,0,0,0,0,0h1.5
		c2.8,0,4.8-0.7,6.1-2.1c1.3-1.4,1.8-3.4,1.8-5.9V21.7L129.4,21.7z M115.5,29.8L115.5,29.8c0-1.2,0.3-1.9,1-2.3
		c0.7-0.5,1.8-0.8,3.5-0.8h0h5.6v1.8c0,1.7-0.4,2.7-0.9,3.1c-1.2,1.1-2.7,1.3-4.6,1.3c0,0,0,0,0,0c0,0,0,0,0,0
		c-1.8,0-2.9-0.3-3.6-0.8C115.8,31.6,115.5,30.9,115.5,29.8z"/>
	<path class="st0" d="M13.5,14.6H9.6v-3.9h0l0-1.9c0-0.3-0.3-0.6-0.7-0.6H6.6c-0.2,0-0.3,0.1-0.5,0.2C6,8.4,6,8.6,6,8.7v3.5h0v18.5
		c0,1.5,0.4,2.9,1.4,3.9c0.9,1,2.4,1.6,4.1,1.6h0h1.1v0h1c0.2,0,0.3-0.1,0.5-0.2c0.1-0.1,0.2-0.3,0.2-0.5v-2.3
		c0-0.2-0.1-0.4-0.2-0.5c-0.1-0.1-0.3-0.2-0.5-0.2h-1.8c-0.4,0-0.7-0.1-0.9-0.1c-0.2-0.1-0.3-0.1-0.4-0.2c-0.1-0.1-0.2-0.1-0.3-0.2
		c-0.3-0.4-0.5-0.9-0.5-1.8V18.3h3.9c0.2,0,0.3-0.1,0.5-0.2c0.1-0.1,0.2-0.3,0.2-0.5v-2.3c0-0.2-0.1-0.4-0.2-0.5
		C13.9,14.6,13.7,14.6,13.5,14.6z"/>
	<path class="st0" d="M30.5,17.3L30.3,17c0,0,0-0.1-0.1-0.1l-0.1-0.1h0l-0.2-0.2l-0.1-0.2l0,0c-1.3-1.4-3-2-4.7-2c0,0-0.1,0-0.1,0
		c-1.2,0-2.7,0.6-3.6,1.6l-0.6,0.7v-0.3v-1.3c0-0.2-0.1-0.3-0.2-0.5c-0.1-0.1-0.3-0.2-0.5-0.2h-2.3c-0.2,0-0.4,0.1-0.5,0.2
		c-0.1,0.1-0.2,0.3-0.2,0.5v1.3v17.7v1.3c0,0.2,0.1,0.3,0.2,0.5c0.1,0.1,0.3,0.2,0.5,0.2h0.4c0,0,0,0,0,0h1.4c0,0,0,0,0,0H20
		c0.2,0,0.4-0.1,0.5-0.2c0.1-0.1,0.2-0.3,0.2-0.5v-0.4c0,0,0,0,0,0V23.1c0,0,0,0,0-0.1v-1c0.1-1.1,0.4-2.1,1-2.9
		c0.6-0.8,1.5-1.3,2.8-1.3c0.7,0,1.1,0.1,1.5,0.2c0.4,0.2,0.7,0.4,1.2,0.9l0.1,0.1l0.5,0.5c0.1,0.1,0.3,0.2,0.5,0.2
		c0.2,0,0.4-0.1,0.5-0.2l1.7-1.5c0.1-0.1,0.2-0.3,0.2-0.5C30.7,17.6,30.6,17.4,30.5,17.3z"/>
	<path class="st0" d="M87.6,25.1C87.6,25.1,87.6,25.1,87.6,25.1L87.6,25.1c-1.4-0.9-3-1.3-4.8-1.4l-3.4-0.3
		c-1.4-0.1-2.3-0.4-2.8-0.8c-0.4-0.3-0.7-0.9-0.7-1.7c0,0,0,0,0,0l0,0v0c0-1,0.4-1.7,1-2.1c0.7-0.5,1.8-0.8,3.4-0.8h0h0
		c2,0,3.7,0.5,5.1,1.4v0l0.9,0.6c0.1,0.1,0.3,0.1,0.5,0.1c0.2,0,0.3-0.1,0.4-0.3l1.3-1.8c0.1-0.2,0.1-0.3,0.1-0.5
		c0-0.1-0.1-0.2-0.1-0.3c0-0.1-0.1-0.2-0.2-0.2l-0.1-0.1c-2-1.4-4.8-2.2-7.9-2.2c-2.4,0-4.5,0.6-6,1.7c-1.5,1.1-2.4,2.8-2.4,4.6v0v0
		v0c0,1.7,0.6,3.1,1.9,4.2c1.2,1,3,1.6,5.2,1.7l3.5,0.3c1.3,0.1,2.1,0.4,2.5,0.8c0.4,0.3,0.7,0.9,0.7,1.7c0,0,0,0,0,0v0
		c0,1.1-0.4,1.8-1.2,2.3c-0.9,0.5-2.2,0.9-4.2,0.9h0c0,0,0,0,0,0h0c-2.5,0-4.4-0.6-5.8-1.7l-0.7-0.6c-0.1-0.1-0.3-0.2-0.5-0.1
		c-0.2,0-0.3,0.1-0.5,0.3l-1.5,1.8c-0.1,0.1-0.2,0.3-0.2,0.5c0,0.2,0.1,0.3,0.2,0.5l0.7,0.6l0,0c0,0,0,0,0,0l0.1,0.1l0,0
		c2.1,1.5,4.8,2.3,8.1,2.3h0.1c2.7,0,5-0.6,6.6-1.7c1.6-1.1,2.6-2.9,2.6-4.9v-0.1C89.6,27.5,88.9,26,87.6,25.1z"/>
</g>
</svg>
