<?xml version="1.0" encoding="utf-8"?>
<!-- Generator: Adobe Illustrator 25.2.1, SVG Export Plug-In . SVG Version: 6.00 Build 0)  -->
<svg version="1.1" id="Capa_1" xmlns="http://www.w3.org/2000/svg" xmlns:xlink="http://www.w3.org/1999/xlink" x="0px" y="0px"
	 viewBox="0 0 512 512" style="enable-background:new 0 0 512 512;" xml:space="preserve">
<style type="text/css">
	.st0{fill:#EA8A1D;}
</style>
<g>
	<path class="st0" d="M201.3,155.4c3.4,0,6.8-1.4,9.4-3.8c2.5-2.5,3.8-5.8,3.8-9.4c0-3.4-1.3-6.7-3.8-9.4c-2.5-2.5-5.8-3.8-9.4-3.8
		c-3.4,0-6.7,1.3-9.3,3.8c-2.5,2.3-3.9,5.8-3.9,9.4c0,3.4,1.4,6.8,3.8,9.3C194.2,153.9,197.7,155.4,201.3,155.4z"/>
	<path class="st0" d="M508,322.6c-2.1-8.1-7.3-14.8-14.6-18.9l-87.1-50.3l3.1-5.4c1.8-3.1,2.3-6.6,1.3-10c-0.9-3.4-3.1-6.2-6.1-8
		c-2.4-1.4-5.2-2-8-1.7V103.4c0-28.6-23.3-51.9-51.9-51.9h-0.4v-4.2c0-19-15.5-34.5-34.5-34.5c-19,0-34.5,15.5-34.5,34.5v4.2h-148
		v-4.2c0-19-15.5-34.5-34.5-34.5S58.3,28.2,58.3,47.3v4.2h-0.4C29.3,51.5,6,74.8,6,103.4v248c0,28.6,23.3,51.9,51.9,51.9H249
		l-14.7,25.5c-4.4,7.5-5.5,16.3-3.3,24.8c2.3,8.5,7.7,15.5,15.2,19.7l2,1.2L235.9,496c-3.7,6.3-1.5,14.4,4.9,18.1
		c2,1.1,4.2,1.7,6.6,1.7c4.7,0,9-2.5,11.5-6.6l12.4-21.5l2,1.2c4.9,2.8,10.5,4.3,16.2,4.3c11.7,0,22.5-6.2,28.2-16.3l38.7-67.1
		c9-15.5,3.6-35.5-11.9-44.5l-2-1.2l8.1-14.1l87.1,50.3c4.8,2.7,10.1,4.1,15.5,4.1c2.9,0,5.6-0.4,8.1-1.1c8-2.2,14.7-7.3,19-14.5
		l24.6-42.6C509,339.1,510.1,330.7,508,322.6z M295.8,374.9c0.8-1.4,2.1-2.4,3.7-2.9c0.6-0.1,1.1-0.2,1.7-0.2c1,0,2,0.3,3.2,0.8
		l26.8,15.5c1.5,0.8,2.5,2.2,2.9,3.8c0.4,1.6,0.2,3.2-0.6,4.6l-38.8,67.2c-1.7,3-5.5,4-8.5,2.3l-26.9-15.5c-1.4-0.8-2.5-2.2-2.9-3.8
		c-0.4-1.6-0.2-3.3,0.6-4.7L295.8,374.9z M325.4,305.3c-6.3-3.7-14.4-1.5-18.1,4.8c-3.7,6.3-1.5,14.4,4.9,18.1l15.5,8.9l-8.1,13.9
		l-2-1.2c-7.5-4.4-16.3-5.5-24.8-3.3c-8.4,2.3-15.5,7.7-19.7,15.2l-8.9,15.2H57.9c-14.1,0-25.6-11.5-25.6-25.6V155.4h125.3
		c7.3,0,13.2-5.9,13.2-13.2S165,129,157.7,129H32.4v-25.6c0-14.1,11.5-25.6,25.6-25.6h0.4v4.2c0,19,15.5,34.5,34.5,34.5
		s34.5-15.5,34.5-34.5v-4.2h148v4.2c0,19,15.5,34.5,34.5,34.5c19,0,34.5-15.5,34.5-34.5v-4.2h0.4c14.1,0,25.6,11.5,25.6,25.6V129
		H244.9c-7.3,0-13.2,5.9-13.2,13.2s5.9,13.2,13.2,13.2h125.3v77.3l-2.2-1.3c-3.1-1.8-6.6-2.3-10-1.3c-3.4,0.9-6.2,3.1-8,6.2
		c-3.7,6.3-1.5,14.4,4.9,18.1l15.5,8.9l-29.4,51L325.4,305.3z M317.9,82.1c0,4.5-3.6,8.1-8.1,8.1s-8.1-3.6-8.1-8.1V47.3
		c0-4.5,3.6-8.1,8.1-8.1s8.1,3.6,8.1,8.1V82.1z M100.9,82.1c0,4.5-3.6,8.1-8.1,8.1s-8.1-3.6-8.1-8.1V47.3c0-4.5,3.6-8.1,8.1-8.1
		s8.1,3.6,8.1,8.1V82.1z M407.2,284.4l-29.4,51l-14.1-8.1l29.4-51L407.2,284.4z M447.4,307.7l-29.4,51l-17.4-10.1l29.4-51
		L447.4,307.7z M482,333.2l-24.6,42.7c-0.6,1.1-1.6,1.8-2.9,2.2c-1.2,0.3-2.5,0.2-3.6-0.5l-9.9-5.7l29.4-51l9.9,5.7
		C482.5,327.8,483.3,330.9,482,333.2z"/>
	<path class="st0" d="M193,265.2v-16h18.2c8.3,0,15.1-6.8,15.1-15.1s-6.8-15.1-15.1-15.1H193v-17.4c0-8.3-6.8-15.1-15.1-15.1
		s-15.1,6.8-15.1,15.1V219h-18.2c-8.3,0-15.1,6.8-15.1,15.1s6.8,15.1,15.1,15.1h18.2v16c0,8.3,6.8,15.1,15.1,15.1
		S193,273.6,193,265.2z"/>
	<path class="st0" d="M117.7,303.9h-7.6v-8.3c0-8.3-6.8-15.1-15.1-15.1s-15.1,6.8-15.1,15.1v8.3h-7.6c-8.1,0-14.6,6.6-14.6,14.6
		c0,8.1,6.6,14.6,14.6,14.6h7.6v6.2c0,8.3,6.8,15.1,15.1,15.1s15.1-6.8,15.1-15.1v-6.2h7.6c8.1,0,14.6-6.6,14.6-14.6
		C132.4,310.4,125.8,303.9,117.7,303.9z"/>
	<path class="st0" d="M314.8,227.1h-7.2v-9.4c0-8.3-6.8-15.1-15.1-15.1s-15.1,6.8-15.1,15.1v9.4h-7.2c-8.3,0-15.1,6.8-15.1,15.1
		s6.8,15.1,15.1,15.1h7.2v7.9c0,8.3,6.8,15.1,15.1,15.1s15.1-6.8,15.1-15.1v-7.9h7.2c8.3,0,15.1-6.8,15.1-15.1
		S323.1,227.1,314.8,227.1z"/>
</g>
</svg>
